# xmcd CD database file
#
# Track frame offsets:
#	150
#	21980
#	45975
#	65430
#	87975
#	100907
#	121010
#	142590
#	161880
#	169340
#	186417
#	208327
#
# Disc length: 3075 seconds
#
# Revision: 60
# Processed by: cddbd v1.5.2PL0 Copyright (c) Steve Scherf et al.
# Submitted via: CDex 1.77
#
DISCID=a40c010c
DTITLE=Santana - Abraxas [Bonus Tracks]
DYEAR=1970
DGENRE=Rock/Pop
TTITLE0=Singing Winds, Crying Beasts
TTITLE1=Black Magic Woman - Gypsy Queen
TTITLE2=Oye Como Va
TTITLE3=Incident At Neshabur
TTITLE4=Se A Cabo
TTITLE5=Mother's Daughter
TTITLE6=Samba Pa Ti
TTITLE7=Hope You're Feeling Better
TTITLE8=El Nicoya
TTITLE9=Se A Cabo - live 1970-04-18
TTITLE10=Toussaint L'Overture - live 1970-04-18
TTITLE11=Black Magic Woman - Gypsy Queen - live 1970-04-18
EXTD=YEAR: 1970
EXTT0=
EXTT1=
EXTT2=
EXTT3=
EXTT4=
EXTT5=
EXTT6=
EXTT7=
EXTT8=
EXTT9=
EXTT10=
EXTT11=
PLAYORDER=
